Coordinates
version=1
nRows=9
nColumns=36
inDegrees=yes

Units are S.I. units (second, meters, Newtons, ...)
If the header above contains a line with 'inDegrees', this indicates whether rotational values are in degrees (yes) or radians (no).

endheader
time	pelvis_tilt	pelvis_list	pelvis_rotation	pelvis_tx	pelvis_ty	pelvis_tz	hip_flexion_r	hip_adduction_r	hip_rotation_r	knee_angle_r	knee_angle_r_beta	ankle_angle_r	subtalar_angle_r	mtp_angle_r	hip_flexion_l	hip_adduction_l	hip_rotation_l	knee_angle_l	knee_angle_l_beta	ankle_angle_l	subtalar_angle_l	mtp_angle_l	lumbar_extension	lumbar_bending	lumbar_rotation	arm_flex_r	arm_add_r	arm_rot_r	elbow_flex_r	pro_sup_r	arm_flex_l	arm_add_l	arm_rot_l	elbow_flex_l	pro_sup_l
     15.15000000	      0.24060315	     -3.10227336	     -5.88820776	      0.73079386	      0.93178781	      0.81139955	      7.06628247	      5.62146543	      0.98542684	     14.15520102	      0.24705486	     13.37995046	     -5.14285938	     -7.49999987	     19.62475204	     -6.03539544	     -5.66345104	     63.03395363	      1.10015003	      7.99529270	    -16.07345361	     -7.49999987	     -6.02160770	      3.66895245	      4.38681334	      8.41758439	    -15.17171282	     18.00237953	     19.90663992	    103.66491284	      5.42468000	    -11.13557816	     26.21591342	     14.30495058	    107.89988563
     15.16666670	      0.84012588	     -2.40272871	     -5.87668021	      0.72987441	      0.93272888	      0.81235682	      5.68272511	      4.82183457	      0.78613382	     14.09972333	      0.24608660	     13.74422935	     -4.33041779	     -7.49999987	     20.85896068	     -5.47253860	     -6.20376041	     61.20785675	      1.06827863	      8.93907012	    -14.96216450	     -7.49999987	     -7.15167189	      2.67947233	      4.87395675	      9.38625666	    -15.29600976	     18.28032748	     20.81190676	    101.92453377	      5.70295195	    -11.43272344	     26.48762812	     14.57425045	    106.53922016
     15.18333330	      1.24979098	     -1.72096947	     -5.85606203	      0.72954580	      0.93260373	      0.81300840	      4.48718367	      4.04190531	      0.52943839	     14.02420998	      0.24476864	     14.00779052	     -3.76819295	     -7.49999987	     21.84268647	     -4.86293873	     -6.68261895	     58.58079362	      1.02242773	      9.45713012	    -14.16554308	     -7.49999987	     -7.84815283	      1.74270360	      5.17967349	     10.26466073	    -15.53814421	     18.98062330	     21.70102541	    103.21172995	      5.77049888	    -11.79214053	     27.27135767	     15.06818673	    107.51998935
     15.20000000	      1.62552398	     -1.13050632	     -5.91202321	      0.72890575	      0.93082561	      0.81365430	      3.28490185	      3.39413686	      0.56916490	     13.84902254	      0.24171104	     14.07761231	     -3.62683847	     -7.49999987	     22.49002482	     -4.39434770	     -7.24831377	     55.35700147	      0.96616194	      9.87975498	    -13.23231268	     -7.49999987	     -8.38104774	      0.89438835	      5.53972197	     10.84139786	    -15.58287132	     18.79570701	     22.30951628	    100.84832828	      5.80299998	    -11.82977460	     27.17010503	     14.95786517	    105.16025998
     15.21666670	      1.70291230	     -0.63738733	     -5.99381479	      0.72728620	      0.92720498	      0.81346568	      2.44748086	      2.82758267	      0.32372447	     13.78451728	      0.24058521	     14.40396451	     -3.26782789	     -7.49999987	     23.26716059	     -4.01283063	     -7.72154877	     51.77123669	      0.90357854	     10.03883189	    -12.43516766	     -7.49999987	     -8.54000241	      0.25897091	      5.81960953	     11.33019819	    -15.73447618	     18.86883267	     23.03971915	    100.21941570	      5.72387629	    -11.80562947	     27.29661404	     15.12307775	    104.49614930
     15.23333330	      1.47096637	     -0.32887967	     -6.11457862	      0.72503954	      0.92295623	      0.81256972	      2.00282149	      2.46855768	     -0.04402141	     13.90428153	      0.24267549	     14.83853944	     -2.89585412	     -7.49999987	     24.29742312	     -3.85724984	     -8.08278273	     48.14571977	      0.84030133	     10.08090357	    -11.55581951	     -7.49999987	     -8.17705269	     -0.08826555	      6.07237872	     11.78885557	    -16.06768365	     19.84243429	     23.40304481	    102.34084043	      5.62976512	    -11.78779023	     28.24176309	     14.94961099	    106.29532396
     15.25000000	      1.32871274	     -0.04394363	     -6.37354238	      0.72335826	      0.91934339	      0.81182123	      1.40916764	      2.14908673	     -0.00267942	     13.95304803	      0.24352663	     15.27297186	     -3.01940221	     -7.49999987	     25.15886465	     -3.73594510	     -8.42911235	     44.46683715	      0.77609272	      9.71968520	    -10.83388283	     -7.49999987	     -8.07439032	     -0.41836616	      6.25802292	     11.92143814	    -16.12918586	     17.66884972	     24.54737917	    105.74371146	      5.13042018	    -11.64310362	     25.78716628	     15.52599091	    108.40347237
     15.26666670	      1.05797625	      0.12834101	     -6.63250682	      0.72304678	      0.91650612	      0.81161196	      0.87179583	      1.93490011	      0.00510231	     13.94479845	      0.24338265	     16.10926086	     -2.76687761	     -7.49999987	     26.17148828	     -3.76878793	     -8.62565081	     41.02200836	      0.71596911	      9.34062769	     -9.93478505	     -7.49999987	     -7.64391414	     -0.57485726	      6.54803812	     12.11606230	    -16.34088732	     17.66907194	     24.97518402	    104.78598843	      4.95313414	    -11.40189695	     25.70823478	     15.38127655	    107.66829495
     15.28333330	      0.76362338	      0.31990357	     -6.90391289	      0.72344503	      0.91335729	      0.81176425	      0.31459049	      1.64517150	     -0.17253876	     13.88355261	      0.24231370	     17.43196728	     -1.89546356	     -7.49999987	     27.17203456	     -3.79324992	     -8.75539909	     37.72335729	      0.65839679	      8.99747974	     -8.87816293	     -7.49999987	     -7.10578326	     -0.73776226	      6.76909423	     12.42205766	    -16.53779910	     18.12063793	     25.10035422	    104.65430868	      4.68390514	    -11.22012623	     25.70529782	     15.12171831	    107.27464911
